<svg xmlns="http://www.w3.org/2000/svg" xmlns:xlink="http://www.w3.org/1999/xlink" contentStyleType="text/css" data-diagram-type="SEQUENCE" height="2778.125px" preserveAspectRatio="none" style="width:1932px;height:2778px;" version="1.1" viewBox="0 0 1932 2778" width="1932.2917px" zoomAndPan="magnify"><title>Portabilidade de Cr&#233;dito - Open Finance Brasil (OFB)</title><defs><linearGradient id="g1qv7goutfs8lm0" x1="50%" x2="50%" y1="0%" y2="100%"><stop offset="0%" stop-color="#FFFFFF"/><stop offset="100%" stop-color="#FFFFFF"/></linearGradient><filter height="300%" id="f1qv7goutfs8lm" width="300%" x="-1" y="-1"><feGaussianBlur result="blurOut" stdDeviation="2.0833"/><feColorMatrix in="blurOut" result="blurOut2" type="matrix" values="0 0 0 0 0 0 0 0 0 0 0 0 0 0 0 0 0 0 .4 0"/><feOffset dx="4.1667" dy="4.1667" in="blurOut2" result="blurOut3"/><feBlend in="SourceGraphic" in2="blurOut3" mode="normal"/></filter><linearGradient id="g1qv7goutfs8lm1" x1="50%" x2="50%" y1="0%" y2="100%"><stop offset="0%" stop-color="#4DABF5"/><stop offset="100%" stop-color="#2196F3"/></linearGradient><linearGradient id="g1qv7goutfs8lm2" x1="50%" x2="50%" y1="0%" y2="100%"><stop offset="0%" stop-color="#B052C0"/><stop offset="100%" stop-color="#9C27B0"/></linearGradient></defs><g><rect fill="url(#g1qv7goutfs8lm0)" height="81.8359" rx="4.1667" ry="4.1667" style="stroke:#CCCCCC;stroke-width:1.0417;" width="993.457" x="470.9579" y="20.8333"/><text fill="#2196F3" font-family="Verdana" font-size="20.8333" font-weight="bold" lengthAdjust="spacing" textLength="619.6187" x="657.8771" y="56.838">Portabilidade de Cr&#233;dito - Open Finance Brasil (OFB)</text><text fill="#2196F3" font-family="Verdana" font-size="20.8333" font-weight="bold" lengthAdjust="spacing" textLength="960.1237" x="487.6246" y="81.0893">Fluxo completo considerando o aceite do cliente da contraproposta da IF Credora</text><rect fill="url(#g1qv7goutfs8lm0)" filter="url(#f1qv7goutfs8lm)" height="137.4023" rx="4.1667" ry="4.1667" style="stroke:#2196F3;stroke-width:1.0417;" width="964.9699" x="442.4184" y="283.8542"/><rect fill="url(#g1qv7goutfs8lm0)" filter="url(#f1qv7goutfs8lm)" height="251.888" rx="4.1667" ry="4.1667" style="stroke:#2196F3;stroke-width:1.0417;" width="964.9699" x="442.4184" y="435.8398"/><rect fill="url(#g1qv7goutfs8lm0)" filter="url(#f1qv7goutfs8lm)" height="240.3971" rx="4.1667" ry="4.1667" style="stroke:#2196F3;stroke-width:1.0417;" width="1286.5" x="442.4184" y="780.3711"/><rect fill="url(#g1qv7goutfs8lm0)" filter="url(#f1qv7goutfs8lm)" height="137.4023" rx="4.1667" ry="4.1667" style="stroke:#2196F3;stroke-width:1.0417;" width="636.3271" x="20.8333" y="1235.2214"/><rect fill="url(#g1qv7goutfs8lm0)" filter="url(#f1qv7goutfs8lm)" height="267.513" rx="4.1667" ry="4.1667" style="stroke:#2196F3;stroke-width:1.0417;" width="1309.9009" x="442.4184" y="1387.207"/><rect fill="url(#g1qv7goutfs8lm0)" filter="url(#f1qv7goutfs8lm)" height="512.0768" rx="4.1667" ry="4.1667" style="stroke:#2196F3;stroke-width:1.0417;" width="1725.2543" x="20.8333" y="1669.3034"/><rect fill="url(#g1qv7goutfs8lm0)" filter="url(#f1qv7goutfs8lm)" height="304.8503" rx="4.1667" ry="4.1667" style="stroke:#2196F3;stroke-width:1.0417;" width="1308.9854" x="442.4184" y="2195.9635"/><rect fill="url(#g1qv7goutfs8lm0)" filter="url(#f1qv7goutfs8lm)" height="137.4023" rx="4.1667" ry="4.1667" style="stroke:#2196F3;stroke-width:1.0417;" width="1473.1628" x="442.4184" y="2515.3971"/><g><title>Cliente</title><rect fill="#000000" fill-opacity="0.00000" height="2454.3294" width="8.3333" x="62.5641" y="216.1784"/><line style="stroke:#CCCCCC;stroke-width:1.0417;stroke-dasharray:5.0,5.0;" x1="66.6667" x2="66.6667" y1="216.1784" y2="2670.5078"/></g><g><title>Institui&#231;&#227;o </title><rect fill="#000000" fill-opacity="0.00000" height="2454.3294" width="8.3333" x="545.6228" y="216.1784"/><line style="stroke:#CCCCCC;stroke-width:1.0417;stroke-dasharray:5.0,5.0;" x1="549.7101" x2="549.7101" y1="216.1784" y2="2670.5078"/></g><g><title>Institui&#231;&#227;o </title><rect fill="#000000" fill-opacity="0.00000" height="2454.3294" width="8.3333" x="1297.3948" y="216.1784"/><line style="stroke:#CCCCCC;stroke-width:1.0417;stroke-dasharray:5.0,5.0;" x1="1300.943" x2="1300.943" y1="216.1784" y2="2670.5078"/></g><g><title>OFB Estrutura</title><rect fill="#000000" fill-opacity="0.00000" height="2454.3294" width="8.3333" x="1796.2738" y="216.1784"/><line style="stroke:#CCCCCC;stroke-width:1.0417;stroke-dasharray:5.0,5.0;" x1="1799.883" x2="1799.883" y1="216.1784" y2="2670.5078"/></g><g class="participant participant-head" data-participant="client"><text fill="#222222" font-family="Verdana" font-size="12.5" lengthAdjust="spacing" textLength="43.8782" x="41.6667" y="202.8137">Cliente</text><ellipse cx="66.7308" cy="123.5026" fill="url(#g1qv7goutfs8lm1)" filter="url(#f1qv7goutfs8lm)" rx="8.3333" ry="8.3333" style="stroke:#2196F3;stroke-width:1.0417;"/><path d="M66.7308,131.8359 L66.7308,159.9609 M53.1891,140.1693 L80.2724,140.1693 M66.7308,159.9609 L53.1891,175.5859 M66.7308,159.9609 L80.2724,175.5859" fill="none" filter="url(#f1qv7goutfs8lm)" style="stroke:#2196F3;stroke-width:1.0417;"/></g><g class="participant participant-tail" data-participant="client"><text fill="#222222" font-family="Verdana" font-size="12.5" lengthAdjust="spacing" textLength="43.8782" x="41.6667" y="2691.4856">Cliente</text><ellipse cx="66.7308" cy="2714.2253" fill="url(#g1qv7goutfs8lm1)" filter="url(#f1qv7goutfs8lm)" rx="8.3333" ry="8.3333" style="stroke:#2196F3;stroke-width:1.0417;"/><path d="M66.7308,2722.5586 L66.7308,2750.6836 M53.1891,2730.8919 L80.2724,2730.8919 M66.7308,2750.6836 L53.1891,2766.3086 M66.7308,2750.6836 L80.2724,2766.3086" fill="none" filter="url(#f1qv7goutfs8lm)" style="stroke:#2196F3;stroke-width:1.0417;"/></g><g class="participant participant-head" data-participant="Institui&#231;&#227;o \nProponente"><rect fill="url(#g1qv7goutfs8lm1)" filter="url(#f1qv7goutfs8lm)" height="64.5182" rx="4.1667" ry="4.1667" style="stroke:#2196F3;stroke-width:1.0417;" width="107.4504" x="494.5017" y="147.4935"/><text fill="#FFFFFF" font-family="Verdana" font-size="12.5" lengthAdjust="spacing" textLength="64.9719" x="513.7543" y="176.8046">Institui&#231;&#227;o</text><text fill="#FFFFFF" font-family="Verdana" font-size="12.5" lengthAdjust="spacing" textLength="72.0337" x="512.2101" y="191.3554">Proponente</text></g><g class="participant participant-tail" data-participant="Institui&#231;&#227;o \nProponente"><rect fill="url(#g1qv7goutfs8lm1)" filter="url(#f1qv7goutfs8lm)" height="64.5182" rx="4.1667" ry="4.1667" style="stroke:#2196F3;stroke-width:1.0417;" width="107.4504" x="494.5017" y="2669.4661"/><text fill="#FFFFFF" font-family="Verdana" font-size="12.5" lengthAdjust="spacing" textLength="64.9719" x="513.7543" y="2698.7773">Institui&#231;&#227;o</text><text fill="#FFFFFF" font-family="Verdana" font-size="12.5" lengthAdjust="spacing" textLength="72.0337" x="512.2101" y="2713.328">Proponente</text></g><g class="participant participant-head" data-participant="Institui&#231;&#227;o \nCredora"><rect fill="url(#g1qv7goutfs8lm1)" filter="url(#f1qv7goutfs8lm)" height="64.5182" rx="4.1667" ry="4.1667" style="stroke:#2196F3;stroke-width:1.0417;" width="104.362" x="1247.818" y="147.4935"/><text fill="#FFFFFF" font-family="Verdana" font-size="12.5" lengthAdjust="spacing" textLength="64.9719" x="1265.5263" y="176.8046">Institui&#231;&#227;o</text><text fill="#FFFFFF" font-family="Verdana" font-size="12.5" lengthAdjust="spacing" textLength="49.939" x="1275.0295" y="191.3554">Credora</text></g><g class="participant participant-tail" data-participant="Institui&#231;&#227;o \nCredora"><rect fill="url(#g1qv7goutfs8lm1)" filter="url(#f1qv7goutfs8lm)" height="64.5182" rx="4.1667" ry="4.1667" style="stroke:#2196F3;stroke-width:1.0417;" width="104.362" x="1247.818" y="2669.4661"/><text fill="#FFFFFF" font-family="Verdana" font-size="12.5" lengthAdjust="spacing" textLength="64.9719" x="1265.5263" y="2698.7773">Institui&#231;&#227;o</text><text fill="#FFFFFF" font-family="Verdana" font-size="12.5" lengthAdjust="spacing" textLength="49.939" x="1275.0295" y="2713.328">Credora</text></g><g class="participant participant-head" data-participant="OFB Estrutura"><rect fill="url(#g1qv7goutfs8lm1)" filter="url(#f1qv7goutfs8lm)" height="49.9674" rx="4.1667" ry="4.1667" style="stroke:#2196F3;stroke-width:1.0417;" width="122.9899" x="1737.383" y="162.0443"/><text fill="#FFFFFF" font-family="Verdana" font-size="12.5" lengthAdjust="spacing" textLength="87.5732" x="1755.0913" y="191.3554">OFB Estrutura</text></g><g class="participant participant-tail" data-participant="OFB Estrutura"><rect fill="url(#g1qv7goutfs8lm1)" filter="url(#f1qv7goutfs8lm)" height="49.9674" rx="4.1667" ry="4.1667" style="stroke:#2196F3;stroke-width:1.0417;" width="122.9899" x="1737.383" y="2669.4661"/><text fill="#FFFFFF" font-family="Verdana" font-size="12.5" lengthAdjust="spacing" textLength="87.5732" x="1755.0913" y="2698.7773">OFB Estrutura</text></g><g class="message" data-participant-1="client" data-participant-2="Institui&#231;&#227;o \nProponente"><polygon fill="#2196F3" points="537.2894,264.0625,547.7061,268.2292,537.2894,272.3958,541.4561,268.2292" style="stroke:#2196F3;stroke-width:1.0417;"/><line style="stroke:#2196F3;stroke-width:3.125;" x1="66.7308" x2="543.5394" y1="268.2292" y2="268.2292"/><text fill="#222222" font-family="Verdana" font-size="12.5" lengthAdjust="spacing" textLength="318.9636" x="84.4391" y="252.7812">Verifica disponibilidade de Portabilidade de cr&#233;dito</text></g><path d="M446.5851,283.8542 L754.481,283.8542 L754.481,310.9049 L744.0643,321.3216 L442.4184,321.3216 L442.4184,288.0208 A4.1667,4.1667 0 0 1 446.5851,283.8542" fill="#FFFFFF" style="stroke:#666666;stroke-width:1.0417;"/><rect fill="none" height="137.4023" rx="4.1667" ry="4.1667" style="stroke:#2196F3;stroke-width:1.0417;" width="964.9699" x="442.4184" y="283.8542"/><text fill="#9C27B0" font-family="Verdana" font-size="12.5" font-weight="bold" lengthAdjust="spacing" textLength="244.3542" x="468.4601" y="306.9153">Etapa Valida&#231;&#227;o do consentimento</text><g class="message" data-participant-1="Institui&#231;&#227;o \nProponente" data-participant-2="Institui&#231;&#227;o \nCredora"><polygon fill="#2196F3" points="1289.0615,358.7891,1299.4781,362.9557,1289.0615,367.1224,1293.2281,362.9557" style="stroke:#2196F3;stroke-width:1.0417;"/><line style="stroke:#2196F3;stroke-width:3.125;" x1="549.7894" x2="1295.3115" y1="362.9557" y2="362.9557"/><text fill="#222222" font-family="Verdana" font-size="12.5" lengthAdjust="spacing" textLength="389.9597" x="567.4978" y="347.5077">Consulta permissions do consentimento fornecido pelo cliente</text></g><g class="message" data-participant-1="Institui&#231;&#227;o \nCredora" data-participant-2="Institui&#231;&#227;o \nProponente"><polygon fill="#2196F3" points="561.2478,408.7565,550.8311,412.9232,561.2478,417.0898,557.0811,412.9232" style="stroke:#2196F3;stroke-width:1.0417;"/><line style="stroke:#2196F3;stroke-width:3.125;" x1="554.9978" x2="1300.5198" y1="412.9232" y2="412.9232"/><text fill="#222222" font-family="Verdana" font-size="12.5" lengthAdjust="spacing" textLength="386.5784" x="577.9144" y="397.4752">Retorna dados a respeito do consentimento dado pelo cliente</text></g><path d="M446.5851,435.8398 L828.1932,435.8398 L828.1932,462.8906 L817.7765,473.3073 L442.4184,473.3073 L442.4184,440.0065 A4.1667,4.1667 0 0 1 446.5851,435.8398" fill="#FFFFFF" style="stroke:#666666;stroke-width:1.0417;"/><rect fill="none" height="251.888" rx="4.1667" ry="4.1667" style="stroke:#2196F3;stroke-width:1.0417;" width="964.9699" x="442.4184" y="435.8398"/><text fill="#9C27B0" font-family="Verdana" font-size="12.5" font-weight="bold" lengthAdjust="spacing" textLength="318.0664" x="468.4601" y="458.901">Etapa Consulta dos contratos de empr&#233;stimo</text><g class="message" data-participant-1="Institui&#231;&#227;o \nProponente" data-participant-2="Institui&#231;&#227;o \nCredora"><polygon fill="#2196F3" points="1289.0615,510.7747,1299.4781,514.9414,1289.0615,519.1081,1293.2281,514.9414" style="stroke:#2196F3;stroke-width:1.0417;"/><line style="stroke:#2196F3;stroke-width:3.125;" x1="549.7894" x2="1295.3115" y1="514.9414" y2="514.9414"/><text fill="#222222" font-family="Verdana" font-size="12.5" lengthAdjust="spacing" textLength="310.2356" x="567.4978" y="499.4934">Solicita n&#250;mero de contratos vinculado ao cliente</text></g><g class="message" data-participant-1="Institui&#231;&#227;o \nCredora" data-participant-2="Institui&#231;&#227;o \nProponente"><polygon fill="#2196F3" points="561.2478,560.7422,550.8311,564.9089,561.2478,569.0755,557.0811,564.9089" style="stroke:#2196F3;stroke-width:1.0417;"/><line style="stroke:#2196F3;stroke-width:3.125;" x1="554.9978" x2="1300.5198" y1="564.9089" y2="564.9089"/><text fill="#222222" font-family="Verdana" font-size="12.5" lengthAdjust="spacing" textLength="198.9868" x="577.9144" y="549.4609">Contratos realizado pelo cliente</text></g><g class="message" data-participant-1="Institui&#231;&#227;o \nProponente" data-participant-2="Institui&#231;&#227;o \nCredora"><polygon fill="#2196F3" points="1289.0615,625.2604,1299.4781,629.4271,1289.0615,633.5938,1293.2281,629.4271" style="stroke:#2196F3;stroke-width:1.0417;"/><line style="stroke:#2196F3;stroke-width:3.125;" x1="549.7894" x2="1295.3115" y1="629.4271" y2="629.4271"/><text fill="#222222" font-family="Verdana" font-size="12.5" lengthAdjust="spacing" textLength="226.2329" x="567.4978" y="599.4283">Solicita detalhamento dos contratos</text><text fill="#222222" font-family="Verdana" font-size="12.5" lengthAdjust="spacing" textLength="250.1404" x="567.4978" y="613.9791">Obs.: Consulta em 3 endpoints distintos</text></g><g class="message" data-participant-1="Institui&#231;&#227;o \nCredora" data-participant-2="Institui&#231;&#227;o \nProponente"><polygon fill="#2196F3" points="561.2478,675.2279,550.8311,679.3945,561.2478,683.5612,557.0811,679.3945" style="stroke:#2196F3;stroke-width:1.0417;"/><line style="stroke:#2196F3;stroke-width:3.125;" x1="554.9978" x2="1300.5198" y1="679.3945" y2="679.3945"/><text fill="#222222" font-family="Verdana" font-size="12.5" lengthAdjust="spacing" textLength="312.146" x="577.9144" y="663.9465">Retorna o detalhamento dos contratos solicitados</text></g><g class="message" data-participant-1="Institui&#231;&#227;o \nProponente" data-participant-2="Institui&#231;&#227;o \nProponente"><line style="stroke:#2196F3;stroke-width:3.125;" x1="549.7894" x2="593.5394" y1="751.2044" y2="751.2044"/><line style="stroke:#2196F3;stroke-width:3.125;" x1="593.5394" x2="593.5394" y1="751.2044" y2="764.7461"/><line style="stroke:#2196F3;stroke-width:3.125;" x1="550.8311" x2="593.5394" y1="764.7461" y2="764.7461"/><polygon fill="#2196F3" points="561.2478,760.5794,550.8311,764.7461,561.2478,768.9128,557.0811,764.7461" style="stroke:#2196F3;stroke-width:1.0417;"/><text fill="#222222" font-family="Verdana" font-size="12.5" lengthAdjust="spacing" textLength="262.4695" x="567.4978" y="721.2056">An&#225;lise de risco e elabora&#231;&#227;o de proposta</text><text fill="#222222" font-family="Verdana" font-size="12.5" lengthAdjust="spacing" textLength="182.0557" x="567.4978" y="735.7564">para Portabilidade de cr&#233;dito</text></g><path d="M446.5851,780.3711 L740.4917,780.3711 L740.4917,807.4219 L730.0751,817.8385 L442.4184,817.8385 L442.4184,784.5378 A4.1667,4.1667 0 0 1 446.5851,780.3711" fill="#FFFFFF" style="stroke:#666666;stroke-width:1.0417;"/><rect fill="none" height="240.3971" rx="4.1667" ry="4.1667" style="stroke:#2196F3;stroke-width:1.0417;" width="1286.5" x="442.4184" y="780.3711"/><text fill="#9C27B0" font-family="Verdana" font-size="12.5" font-weight="bold" lengthAdjust="spacing" textLength="230.365" x="468.4601" y="803.4322">Etapa Gest&#227;o de Simultaneidade</text><path d="M1306.25,827.2135 L1306.25,878.2552 A4.1667,4.1667 0 0 0 1310.4167,882.4219 L1710.4167,882.4219 A4.1667,4.1667 0 0 0 1714.5833,878.2552 L1714.5833,833.4635 L1704.1667,823.0469 L1310.4167,823.0469 A4.1667,4.1667 0 0 0 1306.25,827.2135" fill="url(#g1qv7goutfs8lm2)" filter="url(#f1qv7goutfs8lm)" style="stroke:#9C27B0;stroke-width:1.0417;"/><path d="M1704.1667,823.0469 L1704.1667,831.3802 A2.0833,2.0833 0 0 0 1706.25,833.4635 L1714.5833,833.4635 L1704.1667,823.0469" fill="url(#g1qv7goutfs8lm2)" style="stroke:#9C27B0;stroke-width:1.0417;"/><text fill="#FFFFFF" font-family="Verdana" font-size="12.5" lengthAdjust="spacing" textLength="307.428" x="1322.9167" y="850.2747">IF Credora &#233; respons&#225;vel por identificar se existe</text><text fill="#FFFFFF" font-family="Verdana" font-size="12.5" lengthAdjust="spacing" textLength="366.4185" x="1322.9167" y="864.8254">ou n&#227;o um pedido pr&#233;vio de portabilidade em andamento.</text><g class="message" data-participant-1="Institui&#231;&#227;o \nProponente" data-participant-2="Institui&#231;&#227;o \nCredora"><polygon fill="#2196F3" points="1289.0615,943.75,1299.4781,947.9167,1289.0615,952.0833,1293.2281,947.9167" style="stroke:#2196F3;stroke-width:1.0417;"/><line style="stroke:#2196F3;stroke-width:3.125;" x1="549.7894" x2="1295.3115" y1="947.9167" y2="947.9167"/><text fill="#222222" font-family="Verdana" font-size="12.5" lengthAdjust="spacing" textLength="314.4348" x="567.4978" y="917.9179">Confirma se contrato de empr&#233;stimo est&#225; eleg&#237;vel</text><text fill="#222222" font-family="Verdana" font-size="12.5" lengthAdjust="spacing" textLength="271.7896" x="567.4978" y="932.4687">para solicita&#231;&#227;o da Portabilidade de cr&#233;dito</text></g><g class="message" data-participant-1="Institui&#231;&#227;o \nCredora" data-participant-2="Institui&#231;&#227;o \nProponente"><polygon fill="#2196F3" points="561.2478,1008.2682,550.8311,1012.4349,561.2478,1016.6016,557.0811,1012.4349" style="stroke:#2196F3;stroke-width:1.0417;"/><line style="stroke:#2196F3;stroke-width:3.125;" x1="554.9978" x2="1300.5198" y1="1012.4349" y2="1012.4349"/><text fill="#222222" font-family="Verdana" font-size="12.5" lengthAdjust="spacing" textLength="337.5" x="577.9144" y="982.4361">Retorna dados a respeito da elegibilidade do contrato</text><text fill="#222222" font-family="Verdana" font-size="12.5" lengthAdjust="spacing" textLength="271.7896" x="577.9144" y="996.9869">para solicita&#231;&#227;o da Portabilidade de cr&#233;dito</text></g><g class="message" data-participant-1="Institui&#231;&#227;o \nProponente" data-participant-2="client"><polygon fill="#2196F3" points="78.1891,1065.5273,67.7724,1069.694,78.1891,1073.8607,74.0224,1069.694" style="stroke:#2196F3;stroke-width:1.0417;"/><line style="stroke:#2196F3;stroke-width:3.125;" x1="71.9391" x2="548.7478" y1="1069.694" y2="1069.694"/><text fill="#222222" font-family="Verdana" font-size="12.5" lengthAdjust="spacing" textLength="420.5627" x="94.8558" y="1054.246">Retorna contratos eleg&#237;veis para realizar a Portabilidade de cr&#233;dito</text></g><g class="message" data-participant-1="client" data-participant-2="Institui&#231;&#227;o \nProponente"><polygon fill="#2196F3" points="537.2894,1115.4948,547.7061,1119.6615,537.2894,1123.8281,541.4561,1119.6615" style="stroke:#2196F3;stroke-width:1.0417;"/><line style="stroke:#2196F3;stroke-width:3.125;" x1="66.7308" x2="543.5394" y1="1119.6615" y2="1119.6615"/><text fill="#222222" font-family="Verdana" font-size="12.5" lengthAdjust="spacing" textLength="437.2253" x="84.4391" y="1104.2135">Seleciona contrato para verificar proposta de Portabilidade de cr&#233;dito</text></g><g class="message" data-participant-1="Institui&#231;&#227;o \nProponente" data-participant-2="client"><polygon fill="#2196F3" points="78.1891,1165.4622,67.7724,1169.6289,78.1891,1173.7956,74.0224,1169.6289" style="stroke:#2196F3;stroke-width:1.0417;"/><line style="stroke:#2196F3;stroke-width:3.125;" x1="71.9391" x2="548.7478" y1="1169.6289" y2="1169.6289"/><text fill="#222222" font-family="Verdana" font-size="12.5" lengthAdjust="spacing" textLength="295.0256" x="94.8558" y="1154.1809">Retorna proposta para Portabilidade de cr&#233;dito</text></g><g class="message" data-participant-1="client" data-participant-2="Institui&#231;&#227;o \nProponente"><polygon fill="#2196F3" points="537.2894,1215.4297,547.7061,1219.5964,537.2894,1223.763,541.4561,1219.5964" style="stroke:#2196F3;stroke-width:1.0417;"/><line style="stroke:#2196F3;stroke-width:3.125;" x1="66.7308" x2="543.5394" y1="1219.5964" y2="1219.5964"/><text fill="#222222" font-family="Verdana" font-size="12.5" lengthAdjust="spacing" textLength="199.0967" x="84.4391" y="1204.1484">Solicita Portabilidade de cr&#233;dito</text></g><path d="M25,1235.2214 L295.1457,1235.2214 L295.1457,1262.2721 L284.729,1272.6888 L20.8333,1272.6888 L20.8333,1239.388 A4.1667,4.1667 0 0 1 25,1235.2214" fill="#FFFFFF" style="stroke:#666666;stroke-width:1.0417;"/><rect fill="none" height="137.4023" rx="4.1667" ry="4.1667" style="stroke:#2196F3;stroke-width:1.0417;" width="636.3271" x="20.8333" y="1235.2214"/><text fill="#9C27B0" font-family="Verdana" font-size="12.5" font-weight="bold" lengthAdjust="spacing" textLength="206.604" x="46.875" y="1258.2825">Etapa Assinatura do contrato</text><g class="message" data-participant-1="Institui&#231;&#227;o \nProponente" data-participant-2="client"><polygon fill="#2196F3" points="78.1891,1310.1563,67.7724,1314.3229,78.1891,1318.4896,74.0224,1314.3229" style="stroke:#2196F3;stroke-width:1.0417;"/><line style="stroke:#2196F3;stroke-width:3.125;" x1="71.9391" x2="548.7478" y1="1314.3229" y2="1314.3229"/><text fill="#222222" font-family="Verdana" font-size="12.5" lengthAdjust="spacing" textLength="237.5305" x="94.8558" y="1298.8749">Disponibiliza contrato para assinatura</text></g><g class="message" data-participant-1="client" data-participant-2="Institui&#231;&#227;o \nProponente"><polygon fill="#2196F3" points="537.2894,1360.1237,547.7061,1364.2904,537.2894,1368.457,541.4561,1364.2904" style="stroke:#2196F3;stroke-width:1.0417;"/><line style="stroke:#2196F3;stroke-width:3.125;" x1="66.7308" x2="543.5394" y1="1364.2904" y2="1364.2904"/><text fill="#222222" font-family="Verdana" font-size="12.5" lengthAdjust="spacing" textLength="284.259" x="84.4391" y="1348.8424">Confirma o aceite da Portabilidade de cr&#233;dito</text></g><path d="M446.5851,1387.207 L785.5845,1387.207 L785.5845,1414.2578 L775.1678,1424.6745 L442.4184,1424.6745 L442.4184,1391.3737 A4.1667,4.1667 0 0 1 446.5851,1387.207" fill="#FFFFFF" style="stroke:#666666;stroke-width:1.0417;"/><rect fill="none" height="267.513" rx="4.1667" ry="4.1667" style="stroke:#2196F3;stroke-width:1.0417;" width="1309.9009" x="442.4184" y="1387.207"/><text fill="#9C27B0" font-family="Verdana" font-size="12.5" font-weight="bold" lengthAdjust="spacing" textLength="275.4578" x="468.4601" y="1410.2681">Solicita&#231;&#227;o da Portabilidade de Cr&#233;dito</text><path d="M1306.25,1433.5286 L1306.25,1471.0286 A3.6458,3.6458 0 0 0 1309.8958,1474.6745 L1738.0208,1474.6745 A3.6458,3.6458 0 0 0 1741.6667,1471.0286 L1741.6667,1440.2995 L1731.25,1429.8828 L1309.8958,1429.8828 A3.6458,3.6458 0 0 0 1306.25,1433.5286" fill="#E5E5E5" style="stroke:#191919;stroke-width:1.5625;"/><path d="M1731.25,1429.8828 L1731.25,1438.4766 A1.8229,1.8229 0 0 0 1733.0729,1440.2995 L1741.6667,1440.2995 L1731.25,1429.8828" fill="#E5E5E5" style="stroke:#191919;stroke-width:1.5625;"/><text fill="#191919" font-family="Verdana" font-size="12.5" lengthAdjust="spacing" textLength="392.9443" x="1322.9167" y="1457.1106">Nesta etapa a portabilidade &#233; iniciada com status = RECEIVED</text><path d="M554.1667,1490.2669 L554.1667,1541.3086 A4.1667,4.1667 0 0 0 558.3333,1545.4753 L1447.9167,1545.4753 A4.1667,4.1667 0 0 0 1452.0833,1541.3086 L1452.0833,1496.5169 L1441.6667,1486.1003 L558.3333,1486.1003 A4.1667,4.1667 0 0 0 554.1667,1490.2669" fill="url(#g1qv7goutfs8lm2)" filter="url(#f1qv7goutfs8lm)" style="stroke:#9C27B0;stroke-width:1.0417;"/><path d="M1441.6667,1486.1003 L1441.6667,1494.4336 A2.0833,2.0833 0 0 0 1443.75,1496.5169 L1452.0833,1496.5169 L1441.6667,1486.1003" fill="url(#g1qv7goutfs8lm2)" style="stroke:#9C27B0;stroke-width:1.0417;"/><text fill="#FFFFFF" font-family="Verdana" font-size="12.5" lengthAdjust="spacing" textLength="168.689" x="570.8333" y="1513.328">Conforme sugerido em GT,</text><text fill="#FFFFFF" font-family="Verdana" font-size="12.5" lengthAdjust="spacing" textLength="855.9387" x="570.8333" y="1527.8788">o prazo de 3 dias &#250;teis come&#231;a a contar no pr&#243;ximo dia &#250;til (D+1) ao recebimento do pedido de portabilidade de credito pela IF Credora</text><g class="message" data-participant-1="Institui&#231;&#227;o \nProponente" data-participant-2="Institui&#231;&#227;o \nCredora"><polygon fill="#2196F3" points="1289.0615,1592.2526,1299.4781,1596.4193,1289.0615,1600.5859,1293.2281,1596.4193" style="stroke:#2196F3;stroke-width:1.0417;"/><line style="stroke:#2196F3;stroke-width:3.125;" x1="549.7894" x2="1295.3115" y1="1596.4193" y2="1596.4193"/><text fill="#222222" font-family="Verdana" font-size="12.5" lengthAdjust="spacing" textLength="199.0967" x="567.4978" y="1580.9713">Solicita Portabilidade de cr&#233;dito</text></g><g class="message" data-participant-1="Institui&#231;&#227;o \nCredora" data-participant-2="Institui&#231;&#227;o \nProponente"><polygon fill="#2196F3" points="561.2478,1642.2201,550.8311,1646.3867,561.2478,1650.5534,557.0811,1646.3867" style="stroke:#2196F3;stroke-width:1.0417;"/><line style="stroke:#2196F3;stroke-width:3.125;" x1="554.9978" x2="1300.5198" y1="1646.3867" y2="1646.3867"/><text fill="#222222" font-family="Verdana" font-size="12.5" lengthAdjust="spacing" textLength="313.4888" x="577.9144" y="1630.9387">Confirma recebimento da Portabilidade de cr&#233;dito</text></g><path d="M25,1669.3034 L374.943,1669.3034 L374.943,1696.3542 L364.5264,1706.7708 L20.8333,1706.7708 L20.8333,1673.4701 A4.1667,4.1667 0 0 1 25,1669.3034" fill="#FFFFFF" style="stroke:#666666;stroke-width:1.0417;"/><rect fill="none" height="512.0768" rx="4.1667" ry="4.1667" style="stroke:#2196F3;stroke-width:1.0417;" width="1725.2543" x="20.8333" y="1669.3034"/><text fill="#9C27B0" font-family="Verdana" font-size="12.5" font-weight="bold" lengthAdjust="spacing" textLength="286.4014" x="46.875" y="1692.3645">Etapa An&#225;lise e envio da contraproposta</text><path d="M1306.25,1715.625 L1306.25,1753.125 A3.6458,3.6458 0 0 0 1309.8958,1756.7708 L1731.7708,1756.7708 A3.6458,3.6458 0 0 0 1735.4167,1753.125 L1735.4167,1722.3958 L1725,1711.9792 L1309.8958,1711.9792 A3.6458,3.6458 0 0 0 1306.25,1715.625" fill="#E5E5E5" style="stroke:#191919;stroke-width:1.5625;"/><path d="M1725,1711.9792 L1725,1720.5729 A1.8229,1.8229 0 0 0 1726.8229,1722.3958 L1735.4167,1722.3958 L1725,1711.9792" fill="#E5E5E5" style="stroke:#191919;stroke-width:1.5625;"/><text fill="#191919" font-family="Verdana" font-size="12.5" lengthAdjust="spacing" textLength="386.7126" x="1322.9167" y="1739.2069">Nesta etapa a Portabilidade &#233; iniciada com status = PENDING</text><path d="M1306.25,1772.3633 L1306.25,1823.4049 A4.1667,4.1667 0 0 0 1310.4167,1827.5716 L1727.0833,1827.5716 A4.1667,4.1667 0 0 0 1731.25,1823.4049 L1731.25,1778.6133 L1720.8333,1768.1966 L1310.4167,1768.1966 A4.1667,4.1667 0 0 0 1306.25,1772.3633" fill="url(#g1qv7goutfs8lm2)" filter="url(#f1qv7goutfs8lm)" style="stroke:#9C27B0;stroke-width:1.0417;"/><path d="M1720.8333,1768.1966 L1720.8333,1776.5299 A2.0833,2.0833 0 0 0 1722.9167,1778.6133 L1731.25,1778.6133 L1720.8333,1768.1966" fill="url(#g1qv7goutfs8lm2)" style="stroke:#9C27B0;stroke-width:1.0417;"/><text fill="#FFFFFF" font-family="Verdana" font-size="12.5" lengthAdjust="spacing" textLength="311.1206" x="1322.9167" y="1795.4244">Segundo o escopo disponibilizado pelo regulador,</text><text fill="#FFFFFF" font-family="Verdana" font-size="12.5" lengthAdjust="spacing" textLength="379.3518" x="1326.8901" y="1809.9752">a IF Credora tem 3 dias &#250;teis para realizar a contraproposta.</text><g class="message" data-participant-1="Institui&#231;&#227;o \nCredora" data-participant-2="Institui&#231;&#227;o \nCredora"><line style="stroke:#2196F3;stroke-width:3.125;" x1="1301.5615" x2="1345.3115" y1="1893.0664" y2="1893.0664"/><line style="stroke:#2196F3;stroke-width:3.125;" x1="1345.3115" x2="1345.3115" y1="1893.0664" y2="1906.6081"/><line style="stroke:#2196F3;stroke-width:3.125;" x1="1302.6031" x2="1345.3115" y1="1906.6081" y2="1906.6081"/><polygon fill="#2196F3" points="1313.0198,1902.4414,1302.6031,1906.6081,1313.0198,1910.7747,1308.8531,1906.6081" style="stroke:#2196F3;stroke-width:1.0417;"/><text fill="#222222" font-family="Verdana" font-size="12.5" lengthAdjust="spacing" textLength="228.7231" x="1319.2698" y="1863.0676">An&#225;lise do Pedido de Portabilidade e</text><text fill="#222222" font-family="Verdana" font-size="12.5" lengthAdjust="spacing" textLength="153.1921" x="1319.2698" y="1877.6184">envio da contraproposta</text></g><g class="message" data-participant-1="Institui&#231;&#227;o \nCredora" data-participant-2="client"><polygon fill="#2196F3" points="78.1891,1952.4089,67.7724,1956.5755,78.1891,1960.7422,74.0224,1956.5755" style="stroke:#2196F3;stroke-width:1.0417;"/><line style="stroke:#2196F3;stroke-width:3.125;" x1="71.9391" x2="1300.5198" y1="1956.5755" y2="1956.5755"/><text fill="#222222" font-family="Verdana" font-size="12.5" lengthAdjust="spacing" textLength="153.3997" x="94.8558" y="1941.1275">Envio da contraproposta</text></g><g class="message" data-participant-1="client" data-participant-2="client"><line style="stroke:#2196F3;stroke-width:3.125;" x1="66.7308" x2="110.4808" y1="2006.543" y2="2006.543"/><line style="stroke:#2196F3;stroke-width:3.125;" x1="110.4808" x2="110.4808" y1="2006.543" y2="2020.0846"/><line style="stroke:#2196F3;stroke-width:3.125;" x1="67.7724" x2="110.4808" y1="2020.0846" y2="2020.0846"/><polygon fill="#2196F3" points="78.1891,2015.918,67.7724,2020.0846,78.1891,2024.2513,74.0224,2020.0846" style="stroke:#2196F3;stroke-width:1.0417;"/><text fill="#222222" font-family="Verdana" font-size="12.5" lengthAdjust="spacing" textLength="191.7053" x="84.4391" y="1991.095">Cliente analisa contraproposta</text></g><path d="M71.875,2037.793 L71.875,2118.0013 A4.1667,4.1667 0 0 0 76.0417,2122.168 L813.5417,2122.168 A4.1667,4.1667 0 0 0 817.7083,2118.0013 L817.7083,2044.043 L807.2917,2033.6263 L76.0417,2033.6263 A4.1667,4.1667 0 0 0 71.875,2037.793" fill="url(#g1qv7goutfs8lm2)" filter="url(#f1qv7goutfs8lm)" style="stroke:#9C27B0;stroke-width:1.0417;"/><path d="M807.2917,2033.6263 L807.2917,2041.9596 A2.0833,2.0833 0 0 0 809.375,2044.043 L817.7083,2044.043 L807.2917,2033.6263" fill="url(#g1qv7goutfs8lm2)" style="stroke:#9C27B0;stroke-width:1.0417;"/><text fill="#FFFFFF" font-family="Verdana" font-size="12.5" lengthAdjust="spacing" textLength="305.4077" x="88.5417" y="2060.8541">Cen&#225;rio onde o cliente ACEITA a contraproposta:</text><text fill="#FFFFFF" font-family="Verdana" font-size="12.5" lengthAdjust="spacing" textLength="576.8921" x="92.5151" y="2075.4049">- A IF Credora poder&#225; contatar o cliente por qualquer canal dispon&#237;vel (e-mail,telefone, etc.)</text><text fill="#FFFFFF" font-family="Verdana" font-size="12.5" lengthAdjust="spacing" textLength="699.3408" x="92.5151" y="2089.9556">- O Cliente deve aceitar a contraproposta exclusivamente pelo o Canal Digital da IF Credora at&#233; &#224;s 9h do 3&#186; dia</text><text fill="#FFFFFF" font-family="Verdana" font-size="12.5" lengthAdjust="spacing" textLength="550.0854" x="92.5151" y="2104.5064">- A aus&#234;ncia de resposta do cliente se caracteriza como o n&#227;o aceite da contraproposta</text><g class="message" data-participant-1="client" data-participant-2="Institui&#231;&#227;o \nCredora"><polygon fill="#2196F3" points="1289.0615,2168.8802,1299.4781,2173.0469,1289.0615,2177.2135,1293.2281,2173.0469" style="stroke:#2196F3;stroke-width:1.0417;"/><line style="stroke:#2196F3;stroke-width:3.125;" x1="66.7308" x2="1295.3115" y1="2173.0469" y2="2173.0469"/><text fill="#222222" font-family="Verdana" font-size="12.5" lengthAdjust="spacing" textLength="332.6782" x="84.4391" y="2157.5989">Informa o aceite da contraproposta pelo canal digital</text></g><path d="M446.5851,2195.9635 L854.2308,2195.9635 L854.2308,2223.0143 L843.8141,2233.431 L442.4184,2233.431 L442.4184,2200.1302 A4.1667,4.1667 0 0 1 446.5851,2195.9635" fill="#FFFFFF" style="stroke:#666666;stroke-width:1.0417;"/><rect fill="none" height="304.8503" rx="4.1667" ry="4.1667" style="stroke:#2196F3;stroke-width:1.0417;" width="1308.9854" x="442.4184" y="2195.9635"/><text fill="#9C27B0" font-family="Verdana" font-size="12.5" font-weight="bold" lengthAdjust="spacing" textLength="344.104" x="468.4601" y="2219.0247">Etapa Informar a respeito da reten&#231;&#227;o do cliente</text><path d="M1306.25,2242.2852 L1306.25,2279.7852 A3.6458,3.6458 0 0 0 1309.8958,2283.431 L1736.9792,2283.431 A3.6458,3.6458 0 0 0 1740.625,2279.7852 L1740.625,2249.056 L1730.2083,2238.6393 L1309.8958,2238.6393 A3.6458,3.6458 0 0 0 1306.25,2242.2852" fill="#E5E5E5" style="stroke:#191919;stroke-width:1.5625;"/><path d="M1730.2083,2238.6393 L1730.2083,2247.2331 A1.8229,1.8229 0 0 0 1732.0313,2249.056 L1740.625,2249.056 L1730.2083,2238.6393" fill="#E5E5E5" style="stroke:#191919;stroke-width:1.5625;"/><text fill="#191919" font-family="Verdana" font-size="12.5" lengthAdjust="spacing" textLength="392.0288" x="1322.9167" y="2265.8671">Nesta etapa a portabilidade &#233; iniciada com status = REJECTED</text><path d="M554.1667,2299.0234 L554.1667,2437.5651 A4.1667,4.1667 0 0 0 558.3333,2441.7318 L1397.9167,2441.7318 A4.1667,4.1667 0 0 0 1402.0833,2437.5651 L1402.0833,2305.2734 L1391.6667,2294.8568 L558.3333,2294.8568 A4.1667,4.1667 0 0 0 554.1667,2299.0234" fill="url(#g1qv7goutfs8lm2)" filter="url(#f1qv7goutfs8lm)" style="stroke:#9C27B0;stroke-width:1.0417;"/><path d="M1391.6667,2294.8568 L1391.6667,2303.1901 A2.0833,2.0833 0 0 0 1393.75,2305.2734 L1402.0833,2305.2734 L1391.6667,2294.8568" fill="url(#g1qv7goutfs8lm2)" style="stroke:#9C27B0;stroke-width:1.0417;"/><text fill="#FFFFFF" font-family="Verdana" font-size="12.5" lengthAdjust="spacing" textLength="356.8848" x="570.8333" y="2322.0846">Conforme sugerido pelo GT de portabiliadade de cr&#233;dito,</text><text fill="#FFFFFF" font-family="Verdana" font-size="12.5" lengthAdjust="spacing" textLength="101.2146" x="570.8333" y="2336.6353">Opera&#231;&#227;o retida</text><text fill="#FFFFFF" font-family="Verdana" font-size="12.5" lengthAdjust="spacing" textLength="316.04" x="602.6204" y="2351.1861">- Cliente tem at&#233; 9h para aceitar a contraproposta</text><text fill="#FFFFFF" font-family="Verdana" font-size="12.5" lengthAdjust="spacing" textLength="773.8831" x="602.6204" y="2365.7369">Obs.:Ap&#243;s este hor&#225;rio a contraproposta poder&#225; ainda ser exibida no canal digital da credora, por&#233;m n&#227;o poder&#225; ser aceita</text><text fill="#FFFFFF" font-family="Verdana" font-size="12.5" lengthAdjust="spacing" textLength="315.0574" x="602.6204" y="2380.2877">- Credora tem at&#233; 10h para notificar a proponente</text><text fill="#FFFFFF" font-family="Verdana" font-size="12.5" lengthAdjust="spacing" textLength="3.9734" x="570.8333" y="2394.8385">&#160;</text><text fill="#FFFFFF" font-family="Verdana" font-size="12.5" lengthAdjust="spacing" textLength="128.418" x="570.8333" y="2409.3892">Opera&#231;&#227;o n&#227;o retida</text><text fill="#FFFFFF" font-family="Verdana" font-size="12.5" lengthAdjust="spacing" textLength="315.0574" x="602.6204" y="2423.94">- Credora tem at&#233; 10h para notificar a proponente</text><g class="message" data-participant-1="Institui&#231;&#227;o \nCredora" data-participant-2="Institui&#231;&#227;o \nProponente"><polygon fill="#2196F3" points="561.2478,2488.3138,550.8311,2492.4805,561.2478,2496.6471,557.0811,2492.4805" style="stroke:#2196F3;stroke-width:1.0417;"/><line style="stroke:#2196F3;stroke-width:3.125;" x1="554.9978" x2="1300.5198" y1="2492.4805" y2="2492.4805"/><text fill="#222222" font-family="Verdana" font-size="12.5" lengthAdjust="spacing" textLength="705.9387" x="577.9144" y="2477.0325">Informa a proponente que o cliente aceitou a contraproposta e o pedido de portabilidade de cr&#233;dito &#233; encerrado</text></g><path d="M446.5851,2515.3971 L919.813,2515.3971 L919.813,2542.4479 L909.3964,2552.8646 L442.4184,2552.8646 L442.4184,2519.5638 A4.1667,4.1667 0 0 1 446.5851,2515.3971" fill="#FFFFFF" style="stroke:#666666;stroke-width:1.0417;"/><rect fill="none" height="137.4023" rx="4.1667" ry="4.1667" style="stroke:#2196F3;stroke-width:1.0417;" width="1473.1628" x="442.4184" y="2515.3971"/><text fill="#9C27B0" font-family="Verdana" font-size="12.5" font-weight="bold" lengthAdjust="spacing" textLength="409.6863" x="468.4601" y="2538.4583">Reportar a estrutura a respeito da portabilidade efetuada</text><g class="message" data-participant-1="Institui&#231;&#227;o \nCredora" data-participant-2="OFB Estrutura"><polygon fill="#2196F3" points="1787.9405,2590.332,1798.3571,2594.4987,1787.9405,2598.6654,1792.1071,2594.4987" style="stroke:#2196F3;stroke-width:1.0417;"/><line style="stroke:#2196F3;stroke-width:3.125;" x1="1301.5615" x2="1794.1905" y1="2594.4987" y2="2594.4987"/><text fill="#222222" font-family="Verdana" font-size="12.5" lengthAdjust="spacing" textLength="453.0457" x="1319.2698" y="2579.0507">Reporta informa&#231;&#245;es a respeito dos pedidos de portabilidade solicitados</text></g><g class="message" data-participant-1="Institui&#231;&#227;o \nProponente" data-participant-2="OFB Estrutura"><polygon fill="#2196F3" points="1787.9405,2640.2995,1798.3571,2644.4661,1787.9405,2648.6328,1792.1071,2644.4661" style="stroke:#2196F3;stroke-width:1.0417;"/><line style="stroke:#2196F3;stroke-width:3.125;" x1="549.7894" x2="1794.1905" y1="2644.4661" y2="2644.4661"/><text fill="#222222" font-family="Verdana" font-size="12.5" lengthAdjust="spacing" textLength="453.0457" x="567.4978" y="2629.0181">Reporta informa&#231;&#245;es a respeito dos pedidos de portabilidade solicitados</text></g><!--SRC=[lLXDJnj943slVqM5Kw85j16dHTgLZ368FG02nCcNPbmsBSrqJxfxBCIlMRI7Y9LoYlR2SUUFxUkUjcV6Zhy2MILA7AUxFbwzgdhDEtVF6LCc71ifEawwbEbI6oVkP2g7OiY4tprJFW-bqxH75pahEf5Ag8Jfo0WhKtf_SNBqOQ1Eqk91KwApF6NdFoWhXso46chI91AM3jRm7wbavJyAVyOPaHkTQ-k4_-Ri1Dvug8teYCHfGpkzwlWE2HklTgg_QEztefqpPH5r8SlFvL-Q1khI6rFLZKEwHLeZcS2qjFXQDhDQI3E9QNR6HXSvzPt81TqAVw2oFgooWd6PuG_TMUdzc-75v7niFPWgKgITiycajHB_Nd118sqK9nBVvvpEmEiiDmotQq2vGdcCyd0FjIL1XctElhmBpls9jbzMmnOyioIygQgS3f-09cSvy4GSsIjnkjQfJ2HSgF8bOwD3gMQU9b8bHUhZ56-3JczcsZ1g_oZMGlzToGpPYVHUH9nRu0tKnPtTRn24CpeW89zhgPprN7RueEsRi42l2iN6SF5jAFtskRUTTbNvb4eRsir8csW2KL9nXvXZYp7Dni50vSA83VlqbAsB1gvbvc5J76vqb7RUsVZUaHwjB4uzVAXy3cs12fHF4qufnoZ2D4Dd-75Y22dm0-h0iA0BK1EsYWn46OPMHOGJMMNJYXwLn3oieDv_zVWOIPC97ygqO7DzHnwJ9m3Cu_ABpo8YEgrgX7mLn3zcpeWGKsCQwpg5xMFSX9XnPJIYgaa-nKTQ2gvZtnjQvNJp7NGD-mc6U-soSZE9kydKZ5-vbRPFSMPtJHzjaSjqV6tMb5riDILSOKIpn5jaSbolxSTv_CJC-1O9pBgcLYJhg5KbTBsMZrELr7at5LN6RZ5ypjbNYWDkOcviO1f91VSYQAQCSD8LbdwZgtwlVtRRFwvzLa9kZTj5JBJ1RLkCSHkLmfWwlTdremqS4ezXhXnWxq22bI_EDmgYuFApZzGN1HmEHykl3txiuA0_vwNXySyVF_ZDR3ZXkwcgqDCvkJ0V0_OSj2PsRaiEhYFDScmtu-ttJxechLfvRiQis2hJpOXVAkoEUNdy9howt8nNb_tpuxFpqorfrTGvF2uguS_Oyhbk2l1QKXcSyjhDUAvHizpaWkXfKcv-DhVHsT-oW4rsrAf4q-MCcMse_A9VLfYLdkjXrbzolPvUzTduwe5QGBvsuKgx4F7QOO-HY84FhH1n_TBgOaZST1SWEmJcUzHjefvhlDWW6K9J-xQkZNW5zAaGwQU23IK-hbZJIbgyvxrCo7JNOTkDq1cxe5oo_u62ZujPFaEUS3Lvlr53IAeaBQoS18745KSqzOApOpd6fRJzI2JXmE7oJqk_tllg7VpxuZaJ4nE5BVzMe7UGcrxEXILRv-Ib4rYLU7Q7_P9vVq7CrTjXQRLMSkeipDJsdfdBjdfLH2H3SWjJ8LenS-h9i4EfPs_I-33vN_VE7_tUpPlldO38wKrhBuZvqUbdnGNUp74L0mi4Er0_xSr8vcT780P8KKc59OJ3hV3KwkRbL-lLCjEzDbKFBPOhzeQGKF2WZl4lW3luzhklLSPGwmhXNPz8-PnLf9gQy9UhcAgu6pClnFtnbnWuy8mQCQgv0Dv0jH1Gyp1iQQxpkjqtPNhJ92P5Sm25NF5CMcnuMgC5uW-Ua0IhX8t1icWqoHM7ApuT5CyKGMcsMsNk_JLYLu1HQpA-E3cY_jJWJYMfWo6qGqWMj_xXkP-Ts9Y9NKob-OnUgsD-f7D0zny0]--></g></svg>