<svg xmlns="http://www.w3.org/2000/svg" xmlns:xlink="http://www.w3.org/1999/xlink" contentStyleType="text/css" data-diagram-type="SEQUENCE" height="2346.875px" preserveAspectRatio="none" style="width:1921px;height:2346px;" version="1.1" viewBox="0 0 1921 2346" width="1921.875px" zoomAndPan="magnify"><title>Portabilidade de Cr&#233;dito - Open Finance Brasil (OFB)</title><defs><linearGradient id="gjzcmck4ls8wd0" x1="50%" x2="50%" y1="0%" y2="100%"><stop offset="0%" stop-color="#FFFFFF"/><stop offset="100%" stop-color="#FFFFFF"/></linearGradient><filter height="300%" id="fjzcmck4ls8wd" width="300%" x="-1" y="-1"><feGaussianBlur result="blurOut" stdDeviation="2.0833"/><feColorMatrix in="blurOut" result="blurOut2" type="matrix" values="0 0 0 0 0 0 0 0 0 0 0 0 0 0 0 0 0 0 .4 0"/><feOffset dx="4.1667" dy="4.1667" in="blurOut2" result="blurOut3"/><feBlend in="SourceGraphic" in2="blurOut3" mode="normal"/></filter><linearGradient id="gjzcmck4ls8wd1" x1="50%" x2="50%" y1="0%" y2="100%"><stop offset="0%" stop-color="#4DABF5"/><stop offset="100%" stop-color="#2196F3"/></linearGradient><linearGradient id="gjzcmck4ls8wd2" x1="50%" x2="50%" y1="0%" y2="100%"><stop offset="0%" stop-color="#B052C0"/><stop offset="100%" stop-color="#9C27B0"/></linearGradient></defs><g><rect fill="url(#gjzcmck4ls8wd0)" height="81.8359" rx="4.1667" ry="4.1667" style="stroke:#CCCCCC;stroke-width:1.0417;" width="864.978" x="529.5156" y="20.8333"/><text fill="#2196F3" font-family="Verdana" font-size="20.8333" font-weight="bold" lengthAdjust="spacing" textLength="619.6187" x="652.1952" y="56.838">Portabilidade de Cr&#233;dito - Open Finance Brasil (OFB)</text><text fill="#2196F3" font-family="Verdana" font-size="20.8333" font-weight="bold" lengthAdjust="spacing" textLength="831.6447" x="546.1823" y="81.0893">Fluxo considerando cancelamento pelo cliente no canal da proponente</text><rect fill="url(#gjzcmck4ls8wd0)" filter="url(#fjzcmck4ls8wd)" height="137.4023" rx="4.1667" ry="4.1667" style="stroke:#2196F3;stroke-width:1.0417;" width="727.537" x="442.4184" y="283.8542"/><rect fill="url(#gjzcmck4ls8wd0)" filter="url(#fjzcmck4ls8wd)" height="251.888" rx="4.1667" ry="4.1667" style="stroke:#2196F3;stroke-width:1.0417;" width="727.537" x="442.4184" y="435.8398"/><rect fill="url(#gjzcmck4ls8wd0)" filter="url(#fjzcmck4ls8wd)" height="240.3971" rx="4.1667" ry="4.1667" style="stroke:#2196F3;stroke-width:1.0417;" width="1049" x="442.4184" y="780.3711"/><rect fill="url(#gjzcmck4ls8wd0)" filter="url(#fjzcmck4ls8wd)" height="137.4023" rx="4.1667" ry="4.1667" style="stroke:#2196F3;stroke-width:1.0417;" width="636.3271" x="20.8333" y="1309.1146"/><rect fill="url(#gjzcmck4ls8wd0)" filter="url(#fjzcmck4ls8wd)" height="267.513" rx="4.1667" ry="4.1667" style="stroke:#2196F3;stroke-width:1.0417;" width="1072.4009" x="442.4184" y="1461.1003"/><rect fill="url(#gjzcmck4ls8wd0)" filter="url(#fjzcmck4ls8wd)" height="325.7161" rx="4.1667" ry="4.1667" style="stroke:#2196F3;stroke-width:1.0417;" width="1883.3842" x="20.8333" y="1743.1966"/><rect fill="url(#gjzcmck4ls8wd0)" filter="url(#fjzcmck4ls8wd)" height="137.4023" rx="4.1667" ry="4.1667" style="stroke:#2196F3;stroke-width:1.0417;" width="1235.73" x="442.4184" y="2083.4961"/><g><title>Cliente</title><rect fill="#000000" fill-opacity="0.00000" height="2022.4284" width="8.3333" x="62.5641" y="216.1784"/><line style="stroke:#CCCCCC;stroke-width:1.0417;stroke-dasharray:5.0,5.0;" x1="66.6667" x2="66.6667" y1="216.1784" y2="2238.6068"/></g><g><title>Institui&#231;&#227;o </title><rect fill="#000000" fill-opacity="0.00000" height="2022.4284" width="8.3333" x="545.6228" y="216.1784"/><line style="stroke:#CCCCCC;stroke-width:1.0417;stroke-dasharray:5.0,5.0;" x1="549.7101" x2="549.7101" y1="216.1784" y2="2238.6068"/></g><g><title>Institui&#231;&#227;o </title><rect fill="#000000" fill-opacity="0.00000" height="2022.4284" width="8.3333" x="1059.962" y="216.1784"/><line style="stroke:#CCCCCC;stroke-width:1.0417;stroke-dasharray:5.0,5.0;" x1="1063.5101" x2="1063.5101" y1="216.1784" y2="2238.6068"/></g><g><title>OFB Estrutura</title><rect fill="#000000" fill-opacity="0.00000" height="2022.4284" width="8.3333" x="1558.8409" y="216.1784"/><line style="stroke:#CCCCCC;stroke-width:1.0417;stroke-dasharray:5.0,5.0;" x1="1562.4502" x2="1562.4502" y1="216.1784" y2="2238.6068"/></g><g class="participant participant-head" data-participant="client"><text fill="#222222" font-family="Verdana" font-size="12.5" lengthAdjust="spacing" textLength="43.8782" x="41.6667" y="202.8137">Cliente</text><ellipse cx="66.7308" cy="123.5026" fill="url(#gjzcmck4ls8wd1)" filter="url(#fjzcmck4ls8wd)" rx="8.3333" ry="8.3333" style="stroke:#2196F3;stroke-width:1.0417;"/><path d="M66.7308,131.8359 L66.7308,159.9609 M53.1891,140.1693 L80.2724,140.1693 M66.7308,159.9609 L53.1891,175.5859 M66.7308,159.9609 L80.2724,175.5859" fill="none" filter="url(#fjzcmck4ls8wd)" style="stroke:#2196F3;stroke-width:1.0417;"/></g><g class="participant participant-tail" data-participant="client"><text fill="#222222" font-family="Verdana" font-size="12.5" lengthAdjust="spacing" textLength="43.8782" x="41.6667" y="2259.5846">Cliente</text><ellipse cx="66.7308" cy="2282.3242" fill="url(#gjzcmck4ls8wd1)" filter="url(#fjzcmck4ls8wd)" rx="8.3333" ry="8.3333" style="stroke:#2196F3;stroke-width:1.0417;"/><path d="M66.7308,2290.6576 L66.7308,2318.7826 M53.1891,2298.9909 L80.2724,2298.9909 M66.7308,2318.7826 L53.1891,2334.4076 M66.7308,2318.7826 L80.2724,2334.4076" fill="none" filter="url(#fjzcmck4ls8wd)" style="stroke:#2196F3;stroke-width:1.0417;"/></g><g class="participant participant-head" data-participant="Institui&#231;&#227;o \nProponente"><rect fill="url(#gjzcmck4ls8wd1)" filter="url(#fjzcmck4ls8wd)" height="64.5182" rx="4.1667" ry="4.1667" style="stroke:#2196F3;stroke-width:1.0417;" width="107.4504" x="494.5017" y="147.4935"/><text fill="#FFFFFF" font-family="Verdana" font-size="12.5" lengthAdjust="spacing" textLength="64.9719" x="513.7543" y="176.8046">Institui&#231;&#227;o</text><text fill="#FFFFFF" font-family="Verdana" font-size="12.5" lengthAdjust="spacing" textLength="72.0337" x="512.2101" y="191.3554">Proponente</text></g><g class="participant participant-tail" data-participant="Institui&#231;&#227;o \nProponente"><rect fill="url(#gjzcmck4ls8wd1)" filter="url(#fjzcmck4ls8wd)" height="64.5182" rx="4.1667" ry="4.1667" style="stroke:#2196F3;stroke-width:1.0417;" width="107.4504" x="494.5017" y="2237.5651"/><text fill="#FFFFFF" font-family="Verdana" font-size="12.5" lengthAdjust="spacing" textLength="64.9719" x="513.7543" y="2266.8762">Institui&#231;&#227;o</text><text fill="#FFFFFF" font-family="Verdana" font-size="12.5" lengthAdjust="spacing" textLength="72.0337" x="512.2101" y="2281.427">Proponente</text></g><g class="participant participant-head" data-participant="Institui&#231;&#227;o \nCredora"><rect fill="url(#gjzcmck4ls8wd1)" filter="url(#fjzcmck4ls8wd)" height="64.5182" rx="4.1667" ry="4.1667" style="stroke:#2196F3;stroke-width:1.0417;" width="104.362" x="1010.3851" y="147.4935"/><text fill="#FFFFFF" font-family="Verdana" font-size="12.5" lengthAdjust="spacing" textLength="64.9719" x="1028.0935" y="176.8046">Institui&#231;&#227;o</text><text fill="#FFFFFF" font-family="Verdana" font-size="12.5" lengthAdjust="spacing" textLength="49.939" x="1037.5966" y="191.3554">Credora</text></g><g class="participant participant-tail" data-participant="Institui&#231;&#227;o \nCredora"><rect fill="url(#gjzcmck4ls8wd1)" filter="url(#fjzcmck4ls8wd)" height="64.5182" rx="4.1667" ry="4.1667" style="stroke:#2196F3;stroke-width:1.0417;" width="104.362" x="1010.3851" y="2237.5651"/><text fill="#FFFFFF" font-family="Verdana" font-size="12.5" lengthAdjust="spacing" textLength="64.9719" x="1028.0935" y="2266.8762">Institui&#231;&#227;o</text><text fill="#FFFFFF" font-family="Verdana" font-size="12.5" lengthAdjust="spacing" textLength="49.939" x="1037.5966" y="2281.427">Credora</text></g><g class="participant participant-head" data-participant="OFB Estrutura"><rect fill="url(#gjzcmck4ls8wd1)" filter="url(#fjzcmck4ls8wd)" height="49.9674" rx="4.1667" ry="4.1667" style="stroke:#2196F3;stroke-width:1.0417;" width="122.9899" x="1499.9502" y="162.0443"/><text fill="#FFFFFF" font-family="Verdana" font-size="12.5" lengthAdjust="spacing" textLength="87.5732" x="1517.6585" y="191.3554">OFB Estrutura</text></g><g class="participant participant-tail" data-participant="OFB Estrutura"><rect fill="url(#gjzcmck4ls8wd1)" filter="url(#fjzcmck4ls8wd)" height="49.9674" rx="4.1667" ry="4.1667" style="stroke:#2196F3;stroke-width:1.0417;" width="122.9899" x="1499.9502" y="2237.5651"/><text fill="#FFFFFF" font-family="Verdana" font-size="12.5" lengthAdjust="spacing" textLength="87.5732" x="1517.6585" y="2266.8762">OFB Estrutura</text></g><g class="message" data-participant-1="client" data-participant-2="Institui&#231;&#227;o \nProponente"><polygon fill="#2196F3" points="537.2894,264.0625,547.7061,268.2292,537.2894,272.3958,541.4561,268.2292" style="stroke:#2196F3;stroke-width:1.0417;"/><line style="stroke:#2196F3;stroke-width:3.125;" x1="66.7308" x2="543.5394" y1="268.2292" y2="268.2292"/><text fill="#222222" font-family="Verdana" font-size="12.5" lengthAdjust="spacing" textLength="318.9636" x="84.4391" y="252.7812">Verifica disponibilidade de Portabilidade de cr&#233;dito</text></g><path d="M446.5851,283.8542 L754.481,283.8542 L754.481,310.9049 L744.0643,321.3216 L442.4184,321.3216 L442.4184,288.0208 A4.1667,4.1667 0 0 1 446.5851,283.8542" fill="#FFFFFF" style="stroke:#666666;stroke-width:1.0417;"/><rect fill="none" height="137.4023" rx="4.1667" ry="4.1667" style="stroke:#2196F3;stroke-width:1.0417;" width="727.537" x="442.4184" y="283.8542"/><text fill="#9C27B0" font-family="Verdana" font-size="12.5" font-weight="bold" lengthAdjust="spacing" textLength="244.3542" x="468.4601" y="306.9153">Etapa Valida&#231;&#227;o do consentimento</text><g class="message" data-participant-1="Institui&#231;&#227;o \nProponente" data-participant-2="Institui&#231;&#227;o \nCredora"><polygon fill="#2196F3" points="1051.6286,358.7891,1062.0453,362.9557,1051.6286,367.1224,1055.7953,362.9557" style="stroke:#2196F3;stroke-width:1.0417;"/><line style="stroke:#2196F3;stroke-width:3.125;" x1="549.7894" x2="1057.8786" y1="362.9557" y2="362.9557"/><text fill="#222222" font-family="Verdana" font-size="12.5" lengthAdjust="spacing" textLength="389.9597" x="567.4978" y="347.5077">Consulta permissions do consentimento fornecido pelo cliente</text></g><g class="message" data-participant-1="Institui&#231;&#227;o \nCredora" data-participant-2="Institui&#231;&#227;o \nProponente"><polygon fill="#2196F3" points="561.2478,408.7565,550.8311,412.9232,561.2478,417.0898,557.0811,412.9232" style="stroke:#2196F3;stroke-width:1.0417;"/><line style="stroke:#2196F3;stroke-width:3.125;" x1="554.9978" x2="1063.087" y1="412.9232" y2="412.9232"/><text fill="#222222" font-family="Verdana" font-size="12.5" lengthAdjust="spacing" textLength="386.5784" x="577.9144" y="397.4752">Retorna dados a respeito do consentimento dado pelo cliente</text></g><path d="M446.5851,435.8398 L828.1932,435.8398 L828.1932,462.8906 L817.7765,473.3073 L442.4184,473.3073 L442.4184,440.0065 A4.1667,4.1667 0 0 1 446.5851,435.8398" fill="#FFFFFF" style="stroke:#666666;stroke-width:1.0417;"/><rect fill="none" height="251.888" rx="4.1667" ry="4.1667" style="stroke:#2196F3;stroke-width:1.0417;" width="727.537" x="442.4184" y="435.8398"/><text fill="#9C27B0" font-family="Verdana" font-size="12.5" font-weight="bold" lengthAdjust="spacing" textLength="318.0664" x="468.4601" y="458.901">Etapa Consulta dos contratos de empr&#233;stimo</text><g class="message" data-participant-1="Institui&#231;&#227;o \nProponente" data-participant-2="Institui&#231;&#227;o \nCredora"><polygon fill="#2196F3" points="1051.6286,510.7747,1062.0453,514.9414,1051.6286,519.1081,1055.7953,514.9414" style="stroke:#2196F3;stroke-width:1.0417;"/><line style="stroke:#2196F3;stroke-width:3.125;" x1="549.7894" x2="1057.8786" y1="514.9414" y2="514.9414"/><text fill="#222222" font-family="Verdana" font-size="12.5" lengthAdjust="spacing" textLength="310.2356" x="567.4978" y="499.4934">Solicita n&#250;mero de contratos vinculado ao cliente</text></g><g class="message" data-participant-1="Institui&#231;&#227;o \nCredora" data-participant-2="Institui&#231;&#227;o \nProponente"><polygon fill="#2196F3" points="561.2478,560.7422,550.8311,564.9089,561.2478,569.0755,557.0811,564.9089" style="stroke:#2196F3;stroke-width:1.0417;"/><line style="stroke:#2196F3;stroke-width:3.125;" x1="554.9978" x2="1063.087" y1="564.9089" y2="564.9089"/><text fill="#222222" font-family="Verdana" font-size="12.5" lengthAdjust="spacing" textLength="198.9868" x="577.9144" y="549.4609">Contratos realizado pelo cliente</text></g><g class="message" data-participant-1="Institui&#231;&#227;o \nProponente" data-participant-2="Institui&#231;&#227;o \nCredora"><polygon fill="#2196F3" points="1051.6286,625.2604,1062.0453,629.4271,1051.6286,633.5938,1055.7953,629.4271" style="stroke:#2196F3;stroke-width:1.0417;"/><line style="stroke:#2196F3;stroke-width:3.125;" x1="549.7894" x2="1057.8786" y1="629.4271" y2="629.4271"/><text fill="#222222" font-family="Verdana" font-size="12.5" lengthAdjust="spacing" textLength="226.2329" x="567.4978" y="599.4283">Solicita detalhamento dos contratos</text><text fill="#222222" font-family="Verdana" font-size="12.5" lengthAdjust="spacing" textLength="250.1404" x="567.4978" y="613.9791">Obs.: Consulta em 3 endpoints distintos</text></g><g class="message" data-participant-1="Institui&#231;&#227;o \nCredora" data-participant-2="Institui&#231;&#227;o \nProponente"><polygon fill="#2196F3" points="561.2478,675.2279,550.8311,679.3945,561.2478,683.5612,557.0811,679.3945" style="stroke:#2196F3;stroke-width:1.0417;"/><line style="stroke:#2196F3;stroke-width:3.125;" x1="554.9978" x2="1063.087" y1="679.3945" y2="679.3945"/><text fill="#222222" font-family="Verdana" font-size="12.5" lengthAdjust="spacing" textLength="312.146" x="577.9144" y="663.9465">Retorna o detalhamento dos contratos solicitados</text></g><g class="message" data-participant-1="Institui&#231;&#227;o \nProponente" data-participant-2="Institui&#231;&#227;o \nProponente"><line style="stroke:#2196F3;stroke-width:3.125;" x1="549.7894" x2="593.5394" y1="751.2044" y2="751.2044"/><line style="stroke:#2196F3;stroke-width:3.125;" x1="593.5394" x2="593.5394" y1="751.2044" y2="764.7461"/><line style="stroke:#2196F3;stroke-width:3.125;" x1="550.8311" x2="593.5394" y1="764.7461" y2="764.7461"/><polygon fill="#2196F3" points="561.2478,760.5794,550.8311,764.7461,561.2478,768.9128,557.0811,764.7461" style="stroke:#2196F3;stroke-width:1.0417;"/><text fill="#222222" font-family="Verdana" font-size="12.5" lengthAdjust="spacing" textLength="262.4695" x="567.4978" y="721.2056">An&#225;lise de risco e elabora&#231;&#227;o de proposta</text><text fill="#222222" font-family="Verdana" font-size="12.5" lengthAdjust="spacing" textLength="182.0557" x="567.4978" y="735.7564">para Portabilidade de cr&#233;dito</text></g><path d="M446.5851,780.3711 L740.4917,780.3711 L740.4917,807.4219 L730.0751,817.8385 L442.4184,817.8385 L442.4184,784.5378 A4.1667,4.1667 0 0 1 446.5851,780.3711" fill="#FFFFFF" style="stroke:#666666;stroke-width:1.0417;"/><rect fill="none" height="240.3971" rx="4.1667" ry="4.1667" style="stroke:#2196F3;stroke-width:1.0417;" width="1049" x="442.4184" y="780.3711"/><text fill="#9C27B0" font-family="Verdana" font-size="12.5" font-weight="bold" lengthAdjust="spacing" textLength="230.365" x="468.4601" y="803.4322">Etapa Gest&#227;o de Simultaneidade</text><path d="M1068.75,827.2135 L1068.75,878.2552 A4.1667,4.1667 0 0 0 1072.9167,882.4219 L1472.9167,882.4219 A4.1667,4.1667 0 0 0 1477.0833,878.2552 L1477.0833,833.4635 L1466.6667,823.0469 L1072.9167,823.0469 A4.1667,4.1667 0 0 0 1068.75,827.2135" fill="url(#gjzcmck4ls8wd2)" filter="url(#fjzcmck4ls8wd)" style="stroke:#9C27B0;stroke-width:1.0417;"/><path d="M1466.6667,823.0469 L1466.6667,831.3802 A2.0833,2.0833 0 0 0 1468.75,833.4635 L1477.0833,833.4635 L1466.6667,823.0469" fill="url(#gjzcmck4ls8wd2)" style="stroke:#9C27B0;stroke-width:1.0417;"/><text fill="#FFFFFF" font-family="Verdana" font-size="12.5" lengthAdjust="spacing" textLength="307.428" x="1085.4167" y="850.2747">IF Credora &#233; respons&#225;vel por identificar se existe</text><text fill="#FFFFFF" font-family="Verdana" font-size="12.5" lengthAdjust="spacing" textLength="366.4185" x="1085.4167" y="864.8254">ou n&#227;o um pedido pr&#233;vio de portabilidade em andamento.</text><g class="message" data-participant-1="Institui&#231;&#227;o \nProponente" data-participant-2="Institui&#231;&#227;o \nCredora"><polygon fill="#2196F3" points="1051.6286,943.75,1062.0453,947.9167,1051.6286,952.0833,1055.7953,947.9167" style="stroke:#2196F3;stroke-width:1.0417;"/><line style="stroke:#2196F3;stroke-width:3.125;" x1="549.7894" x2="1057.8786" y1="947.9167" y2="947.9167"/><text fill="#222222" font-family="Verdana" font-size="12.5" lengthAdjust="spacing" textLength="314.4348" x="567.4978" y="917.9179">Confirma se contrato de empr&#233;stimo est&#225; eleg&#237;vel</text><text fill="#222222" font-family="Verdana" font-size="12.5" lengthAdjust="spacing" textLength="271.7896" x="567.4978" y="932.4687">para solicita&#231;&#227;o da Portabilidade de cr&#233;dito</text></g><g class="message" data-participant-1="Institui&#231;&#227;o \nCredora" data-participant-2="Institui&#231;&#227;o \nProponente"><polygon fill="#2196F3" points="561.2478,1008.2682,550.8311,1012.4349,561.2478,1016.6016,557.0811,1012.4349" style="stroke:#2196F3;stroke-width:1.0417;"/><line style="stroke:#2196F3;stroke-width:3.125;" x1="554.9978" x2="1063.087" y1="1012.4349" y2="1012.4349"/><text fill="#222222" font-family="Verdana" font-size="12.5" lengthAdjust="spacing" textLength="337.5" x="577.9144" y="982.4361">Retorna dados a respeito da elegibilidade do contrato</text><text fill="#222222" font-family="Verdana" font-size="12.5" lengthAdjust="spacing" textLength="271.7896" x="577.9144" y="996.9869">para solicita&#231;&#227;o da Portabilidade de cr&#233;dito</text></g><g class="message" data-participant-1="Institui&#231;&#227;o \nProponente" data-participant-2="client"><polygon fill="#2196F3" points="78.1891,1065.5273,67.7724,1069.694,78.1891,1073.8607,74.0224,1069.694" style="stroke:#2196F3;stroke-width:1.0417;"/><line style="stroke:#2196F3;stroke-width:3.125;" x1="71.9391" x2="548.7478" y1="1069.694" y2="1069.694"/><text fill="#222222" font-family="Verdana" font-size="12.5" lengthAdjust="spacing" textLength="420.5627" x="94.8558" y="1054.246">Retorna contratos eleg&#237;veis para realizar a Portabilidade de cr&#233;dito</text></g><g class="message" data-participant-1="client" data-participant-2="Institui&#231;&#227;o \nProponente"><polygon fill="#2196F3" points="537.2894,1115.4948,547.7061,1119.6615,537.2894,1123.8281,541.4561,1119.6615" style="stroke:#2196F3;stroke-width:1.0417;"/><line style="stroke:#2196F3;stroke-width:3.125;" x1="66.7308" x2="543.5394" y1="1119.6615" y2="1119.6615"/><text fill="#222222" font-family="Verdana" font-size="12.5" lengthAdjust="spacing" textLength="437.2253" x="84.4391" y="1104.2135">Seleciona contrato para verificar proposta de Portabilidade de cr&#233;dito</text></g><g class="message" data-participant-1="Institui&#231;&#227;o \nProponente" data-participant-2="client"><polygon fill="#2196F3" points="78.1891,1165.4622,67.7724,1169.6289,78.1891,1173.7956,74.0224,1169.6289" style="stroke:#2196F3;stroke-width:1.0417;"/><line style="stroke:#2196F3;stroke-width:3.125;" x1="71.9391" x2="548.7478" y1="1169.6289" y2="1169.6289"/><text fill="#222222" font-family="Verdana" font-size="12.5" lengthAdjust="spacing" textLength="295.0256" x="94.8558" y="1154.1809">Retorna proposta para Portabilidade de cr&#233;dito</text></g><path d="M554.1667,1187.3372 L554.1667,1238.3789 A4.1667,4.1667 0 0 0 558.3333,1242.5456 L1216.6667,1242.5456 A4.1667,4.1667 0 0 0 1220.8333,1238.3789 L1220.8333,1193.5872 L1210.4167,1183.1706 L558.3333,1183.1706 A4.1667,4.1667 0 0 0 554.1667,1187.3372" fill="url(#gjzcmck4ls8wd2)" filter="url(#fjzcmck4ls8wd)" style="stroke:#9C27B0;stroke-width:1.0417;"/><path d="M1210.4167,1183.1706 L1210.4167,1191.5039 A2.0833,2.0833 0 0 0 1212.5,1193.5872 L1220.8333,1193.5872 L1210.4167,1183.1706" fill="url(#gjzcmck4ls8wd2)" style="stroke:#9C27B0;stroke-width:1.0417;"/><text fill="#FFFFFF" font-family="Verdana" font-size="12.5" lengthAdjust="spacing" textLength="623.9868" x="570.8333" y="1210.3984">IF Proponente dever&#225; verificar se o valor da parcela ofertada &#233; superior ao valor da parcela original</text><text fill="#FFFFFF" font-family="Verdana" font-size="12.5" lengthAdjust="spacing" textLength="441.1682" x="570.8333" y="1224.9491">em caso afirmativo dever&#225; ter o aceite do cliente antes de prosseguir.</text><g class="message" data-participant-1="client" data-participant-2="Institui&#231;&#227;o \nProponente"><polygon fill="#2196F3" points="537.2894,1289.3229,547.7061,1293.4896,537.2894,1297.6563,541.4561,1293.4896" style="stroke:#2196F3;stroke-width:1.0417;"/><line style="stroke:#2196F3;stroke-width:3.125;" x1="66.7308" x2="543.5394" y1="1293.4896" y2="1293.4896"/><text fill="#222222" font-family="Verdana" font-size="12.5" lengthAdjust="spacing" textLength="199.0967" x="84.4391" y="1278.0416">Solicita Portabilidade de cr&#233;dito</text></g><path d="M25,1309.1146 L295.1457,1309.1146 L295.1457,1336.1654 L284.729,1346.582 L20.8333,1346.582 L20.8333,1313.2813 A4.1667,4.1667 0 0 1 25,1309.1146" fill="#FFFFFF" style="stroke:#666666;stroke-width:1.0417;"/><rect fill="none" height="137.4023" rx="4.1667" ry="4.1667" style="stroke:#2196F3;stroke-width:1.0417;" width="636.3271" x="20.8333" y="1309.1146"/><text fill="#9C27B0" font-family="Verdana" font-size="12.5" font-weight="bold" lengthAdjust="spacing" textLength="206.604" x="46.875" y="1332.1757">Etapa Assinatura do contrato</text><g class="message" data-participant-1="Institui&#231;&#227;o \nProponente" data-participant-2="client"><polygon fill="#2196F3" points="78.1891,1384.0495,67.7724,1388.2161,78.1891,1392.3828,74.0224,1388.2161" style="stroke:#2196F3;stroke-width:1.0417;"/><line style="stroke:#2196F3;stroke-width:3.125;" x1="71.9391" x2="548.7478" y1="1388.2161" y2="1388.2161"/><text fill="#222222" font-family="Verdana" font-size="12.5" lengthAdjust="spacing" textLength="237.5305" x="94.8558" y="1372.7681">Disponibiliza contrato para assinatura</text></g><g class="message" data-participant-1="client" data-participant-2="Institui&#231;&#227;o \nProponente"><polygon fill="#2196F3" points="537.2894,1434.0169,547.7061,1438.1836,537.2894,1442.3503,541.4561,1438.1836" style="stroke:#2196F3;stroke-width:1.0417;"/><line style="stroke:#2196F3;stroke-width:3.125;" x1="66.7308" x2="543.5394" y1="1438.1836" y2="1438.1836"/><text fill="#222222" font-family="Verdana" font-size="12.5" lengthAdjust="spacing" textLength="284.259" x="84.4391" y="1422.7356">Confirma o aceite da Portabilidade de cr&#233;dito</text></g><path d="M446.5851,1461.1003 L785.5845,1461.1003 L785.5845,1488.151 L775.1678,1498.5677 L442.4184,1498.5677 L442.4184,1465.2669 A4.1667,4.1667 0 0 1 446.5851,1461.1003" fill="#FFFFFF" style="stroke:#666666;stroke-width:1.0417;"/><rect fill="none" height="267.513" rx="4.1667" ry="4.1667" style="stroke:#2196F3;stroke-width:1.0417;" width="1072.4009" x="442.4184" y="1461.1003"/><text fill="#9C27B0" font-family="Verdana" font-size="12.5" font-weight="bold" lengthAdjust="spacing" textLength="275.4578" x="468.4601" y="1484.1614">Solicita&#231;&#227;o da Portabilidade de Cr&#233;dito</text><path d="M1068.75,1507.4219 L1068.75,1544.9219 A3.6458,3.6458 0 0 0 1072.3958,1548.5677 L1500.5208,1548.5677 A3.6458,3.6458 0 0 0 1504.1667,1544.9219 L1504.1667,1514.1927 L1493.75,1503.776 L1072.3958,1503.776 A3.6458,3.6458 0 0 0 1068.75,1507.4219" fill="#E5E5E5" style="stroke:#191919;stroke-width:1.5625;"/><path d="M1493.75,1503.776 L1493.75,1512.3698 A1.8229,1.8229 0 0 0 1495.5729,1514.1927 L1504.1667,1514.1927 L1493.75,1503.776" fill="#E5E5E5" style="stroke:#191919;stroke-width:1.5625;"/><text fill="#191919" font-family="Verdana" font-size="12.5" lengthAdjust="spacing" textLength="392.9443" x="1085.4167" y="1531.0038">Nesta etapa a portabilidade &#233; iniciada com status = RECEIVED</text><path d="M554.1667,1564.1602 L554.1667,1615.2018 A4.1667,4.1667 0 0 0 558.3333,1619.3685 L1447.9167,1619.3685 A4.1667,4.1667 0 0 0 1452.0833,1615.2018 L1452.0833,1570.4102 L1441.6667,1559.9935 L558.3333,1559.9935 A4.1667,4.1667 0 0 0 554.1667,1564.1602" fill="url(#gjzcmck4ls8wd2)" filter="url(#fjzcmck4ls8wd)" style="stroke:#9C27B0;stroke-width:1.0417;"/><path d="M1441.6667,1559.9935 L1441.6667,1568.3268 A2.0833,2.0833 0 0 0 1443.75,1570.4102 L1452.0833,1570.4102 L1441.6667,1559.9935" fill="url(#gjzcmck4ls8wd2)" style="stroke:#9C27B0;stroke-width:1.0417;"/><text fill="#FFFFFF" font-family="Verdana" font-size="12.5" lengthAdjust="spacing" textLength="168.689" x="570.8333" y="1587.2213">Conforme sugerido em GT,</text><text fill="#FFFFFF" font-family="Verdana" font-size="12.5" lengthAdjust="spacing" textLength="855.9387" x="570.8333" y="1601.7721">o prazo de 3 dias &#250;teis come&#231;a a contar no pr&#243;ximo dia &#250;til (D+1) ao recebimento do pedido de portabilidade de credito pela IF Credora</text><g class="message" data-participant-1="Institui&#231;&#227;o \nProponente" data-participant-2="Institui&#231;&#227;o \nCredora"><polygon fill="#2196F3" points="1051.6286,1666.1458,1062.0453,1670.3125,1051.6286,1674.4792,1055.7953,1670.3125" style="stroke:#2196F3;stroke-width:1.0417;"/><line style="stroke:#2196F3;stroke-width:3.125;" x1="549.7894" x2="1057.8786" y1="1670.3125" y2="1670.3125"/><text fill="#222222" font-family="Verdana" font-size="12.5" lengthAdjust="spacing" textLength="199.0967" x="567.4978" y="1654.8645">Solicita Portabilidade de cr&#233;dito</text></g><g class="message" data-participant-1="Institui&#231;&#227;o \nCredora" data-participant-2="Institui&#231;&#227;o \nProponente"><polygon fill="#2196F3" points="561.2478,1716.1133,550.8311,1720.2799,561.2478,1724.4466,557.0811,1720.2799" style="stroke:#2196F3;stroke-width:1.0417;"/><line style="stroke:#2196F3;stroke-width:3.125;" x1="554.9978" x2="1063.087" y1="1720.2799" y2="1720.2799"/><text fill="#222222" font-family="Verdana" font-size="12.5" lengthAdjust="spacing" textLength="313.4888" x="577.9144" y="1704.8319">Confirma recebimento da Portabilidade de cr&#233;dito</text></g><path d="M25,1743.1966 L553.3427,1743.1966 L553.3427,1770.2474 L542.926,1780.6641 L20.8333,1780.6641 L20.8333,1747.3633 A4.1667,4.1667 0 0 1 25,1743.1966" fill="#FFFFFF" style="stroke:#666666;stroke-width:1.0417;"/><rect fill="none" height="325.7161" rx="4.1667" ry="4.1667" style="stroke:#2196F3;stroke-width:1.0417;" width="1883.3842" x="20.8333" y="1743.1966"/><text fill="#9C27B0" font-family="Verdana" font-size="12.5" font-weight="bold" lengthAdjust="spacing" textLength="464.801" x="46.875" y="1766.2577">Etapa Desist&#234;ncia do pedido de portabilidade antes da efetiva&#231;&#227;o</text><path d="M1068.75,1789.5182 L1068.75,1827.0182 A3.6458,3.6458 0 0 0 1072.3958,1830.6641 L1890.1042,1830.6641 A3.6458,3.6458 0 0 0 1893.75,1827.0182 L1893.75,1796.2891 L1883.3333,1785.8724 L1072.3958,1785.8724 A3.6458,3.6458 0 0 0 1068.75,1789.5182" fill="#E5E5E5" style="stroke:#191919;stroke-width:1.5625;"/><path d="M1883.3333,1785.8724 L1883.3333,1794.4661 A1.8229,1.8229 0 0 0 1885.1563,1796.2891 L1893.75,1796.2891 L1883.3333,1785.8724" fill="#E5E5E5" style="stroke:#191919;stroke-width:1.5625;"/><text fill="#191919" font-family="Verdana" font-size="12.5" lengthAdjust="spacing" textLength="782.3425" x="1085.4167" y="1813.1002">Nesta etapa a portabilidade deve estar com o status = "RECEIVED", "PENDING" ou "ACCEPTED_SETTLEMENT_IN_PROGRESS"</text><path d="M71.875,1846.2565 L71.875,1955.6315 A4.1667,4.1667 0 0 0 76.0417,1959.7982 L701.0417,1959.7982 A4.1667,4.1667 0 0 0 705.2083,1955.6315 L705.2083,1852.5065 L694.7917,1842.0898 L76.0417,1842.0898 A4.1667,4.1667 0 0 0 71.875,1846.2565" fill="url(#gjzcmck4ls8wd2)" filter="url(#fjzcmck4ls8wd)" style="stroke:#9C27B0;stroke-width:1.0417;"/><path d="M694.7917,1842.0898 L694.7917,1850.4232 A2.0833,2.0833 0 0 0 696.875,1852.5065 L705.2083,1852.5065 L694.7917,1842.0898" fill="url(#gjzcmck4ls8wd2)" style="stroke:#9C27B0;stroke-width:1.0417;"/><text fill="#FFFFFF" font-family="Verdana" font-size="12.5" lengthAdjust="spacing" textLength="586.9019" x="88.5417" y="1869.3176">O cliente poder&#225; desistir do pedido de portabilidade de cr&#233;dito a qualquer momento antes de</text><text fill="#FFFFFF" font-family="Verdana" font-size="12.5" lengthAdjust="spacing" textLength="560.2966" x="88.5417" y="1883.8684">ocorrer a liquida&#231;&#227;o da opera&#231;&#227;o, tanto no canal digital da institui&#231;&#227;o proponente quanto</text><text fill="#FFFFFF" font-family="Verdana" font-size="12.5" lengthAdjust="spacing" textLength="290.979" x="88.5417" y="1898.4192">no canal digital da institui&#231;&#227;o credora original.</text><text fill="#FFFFFF" font-family="Verdana" font-size="12.5" lengthAdjust="spacing" textLength="3.9734" x="88.5417" y="1912.97">&#160;</text><text fill="#FFFFFF" font-family="Verdana" font-size="12.5" lengthAdjust="spacing" textLength="556.1462" x="88.5417" y="1927.5208">O prazo final para desist&#234;ncia do pedido ser&#225; &#224;s 9h do terceiro dia &#250;til ap&#243;s a solicita&#231;&#227;o</text><text fill="#FFFFFF" font-family="Verdana" font-size="12.5" lengthAdjust="spacing" textLength="483.8013" x="88.5417" y="1942.0715">ou at&#233; a atualiza&#231;&#227;o da m&#225;quina de estados pela institui&#231;&#227;o credora original.</text><g class="message" data-participant-1="client" data-participant-2="Institui&#231;&#227;o \nProponente"><polygon fill="#2196F3" points="537.2894,2006.4453,547.7061,2010.612,537.2894,2014.7786,541.4561,2010.612" style="stroke:#2196F3;stroke-width:1.0417;"/><line style="stroke:#2196F3;stroke-width:3.125;" x1="66.7308" x2="543.5394" y1="2010.612" y2="2010.612"/><text fill="#222222" font-family="Verdana" font-size="12.5" lengthAdjust="spacing" textLength="390.7776" x="84.4391" y="1995.164">Solicita o cancelamento do pedido de Portabilidade de Cr&#233;dito</text></g><g class="message" data-participant-1="Institui&#231;&#227;o \nProponente" data-participant-2="Institui&#231;&#227;o \nCredora"><polygon fill="#2196F3" points="1051.6286,2056.4128,1062.0453,2060.5794,1051.6286,2064.7461,1055.7953,2060.5794" style="stroke:#2196F3;stroke-width:1.0417;"/><line style="stroke:#2196F3;stroke-width:3.125;" x1="549.7894" x2="1057.8786" y1="2060.5794" y2="2060.5794"/><text fill="#222222" font-family="Verdana" font-size="12.5" lengthAdjust="spacing" textLength="468.5059" x="567.4978" y="2045.1314">Informa a respeito do cancelamento do pedido de Portabilidade de Cr&#233;dito</text></g><path d="M446.5851,2083.4961 L919.813,2083.4961 L919.813,2110.5469 L909.3964,2120.9635 L442.4184,2120.9635 L442.4184,2087.6628 A4.1667,4.1667 0 0 1 446.5851,2083.4961" fill="#FFFFFF" style="stroke:#666666;stroke-width:1.0417;"/><rect fill="none" height="137.4023" rx="4.1667" ry="4.1667" style="stroke:#2196F3;stroke-width:1.0417;" width="1235.73" x="442.4184" y="2083.4961"/><text fill="#9C27B0" font-family="Verdana" font-size="12.5" font-weight="bold" lengthAdjust="spacing" textLength="409.6863" x="468.4601" y="2106.5572">Reportar a estrutura a respeito da portabilidade efetuada</text><g class="message" data-participant-1="Institui&#231;&#227;o \nCredora" data-participant-2="OFB Estrutura"><polygon fill="#2196F3" points="1550.5076,2158.431,1560.9243,2162.5977,1550.5076,2166.7643,1554.6743,2162.5977" style="stroke:#2196F3;stroke-width:1.0417;"/><line style="stroke:#2196F3;stroke-width:3.125;" x1="1064.1286" x2="1556.7576" y1="2162.5977" y2="2162.5977"/><text fill="#222222" font-family="Verdana" font-size="12.5" lengthAdjust="spacing" textLength="453.0457" x="1081.837" y="2147.1497">Reporta informa&#231;&#245;es a respeito dos pedidos de portabilidade solicitados</text></g><g class="message" data-participant-1="Institui&#231;&#227;o \nProponente" data-participant-2="OFB Estrutura"><polygon fill="#2196F3" points="1550.5076,2208.3984,1560.9243,2212.5651,1550.5076,2216.7318,1554.6743,2212.5651" style="stroke:#2196F3;stroke-width:1.0417;"/><line style="stroke:#2196F3;stroke-width:3.125;" x1="549.7894" x2="1556.7576" y1="2212.5651" y2="2212.5651"/><text fill="#222222" font-family="Verdana" font-size="12.5" lengthAdjust="spacing" textLength="453.0457" x="567.4978" y="2197.1171">Reporta informa&#231;&#245;es a respeito dos pedidos de portabilidade solicitados</text></g><!--SRC=[jLTDJ-H64BtFhwZrAQkmID6Uib8YmOn18oKCOX0d9DJOFT2ItMswsoF4hmdAORMHSbhbibV_iRnkj-tn0EEPPP5MB3RTzV7grQloEtlBSquvirmBDhB2PfnEbRRiMcGYPIad_1lhwaighA8FD2kuf2CXcKmu7MfcH4O_pOuEtr_AewoyLvGeQKJADPCf7jonZELSudB1Cxp911uuIVz7bb7AgD2gKDAz7h74AatHk3uL4JFXngZ-ZpxyJXHDfK6afQW-LtyhkfIdhO68Fj45Kbc8X54g35wBrKoUf9Q4r4OtMfK5nPOLZ2wOEr1RJ-kKO5puD4ORlJyRtbZpL6dcOXl3L9bPvCnrBemHU7xYWXPAIvw8j8_Pw6N3S3i0oXa7i1AOi5GPOgIvARWhwHFdxaJVBvTf3vus2MSAbwrc5hy1JPuNm1DnvA_4QQuoaGYuaDMtd6lbIzLwMWgPb9cBa_qOTCQjQSrH-mSs2Frt9PDooxBRq0vzy2xbxDhihn24v_IHW7oXXBJ6STdY5sL-20lKfb1C21TlVUbtpxtlz41MZvamljsqC8aY42LZruWvj1Yl9S0WxKjPCCssxDDZRcmmC1UvWqroVsCabNNERcujgSN6uaoFA3nHzSMt1IfGFIvvHWMa25A6pd1oeWafy7lKWSE2Aa5Ds2fp42NrhOe8bwBEfXSzAWanhA7UVxLyB8JEcGkbATXQtv73v140yvlgNvT5GBIfQe1y4yHlepFCnxIYngfBOVSOjo5c61ahKNKaR_0HXhphqFUQDZdTVWRDOJ-1k7SkQpVBC9jqn_YDKsdt55kx0tqqq27zTD0atGkOGHhWM9SCwAXeoJ8qJEezkwaFknpUKzzOfiJ44_WxU-uWui1AaLrAz4h237JTqzoAfMgzOKE14vQ0JJLvmYR1yCC43J66tvH2x-zIgKQSjvES0ynioMofsIg1TwZJf5jA7jRPmLhZEoJGQa87pb3Zr0dD1xkjsVj6xverKPiTfFM4EnvoZnjR4qLGGaYuT_H8L4uuQKj3lz5PF8wd5_6ayrclfZlnrM6YD6wRyWQtKIaGw_XypmatUC8Ul6f-n5J5Wbbziqu640MlFhj8NL50Qd-q-dhlH1K7tJctx4v-_kMzOx7c2RzkTYRLJ84dwk-nvtvxBXpNktapI9gNiTsEjz-luwkqwkMv7RFgLfbmWs5P_IDHvKq8XGO6KnOS7L_pyGqevuJ4JKUKrZ5ETPoB6j95UnITnYUJwSbnH1ZnqS5u79-UnvEhUNn-_aVyPtnoVZKzkJezcnsVnVDvj9cbeOa_qQnLgqAbNirI3uxGWzG9NrwCxagMtPKGmLpLnMY53wHEbDRS3QzCt9NTjmj40R9RF-qHrYDSwxwy8Bgs_W8JFKIxxp7dLFhvF7mh2LjK8-Rxk8MjDhJRmhsgLIvzdXV6urBzPUZNM_SQW4BEz6hliQBwwfQA_fxWbp5ceIYekItz76_ppwj702Bzc7MrTrk9xyE1u4Sh2ZpKAcqhhdtmzahxihY-IWQcNkZO-XVTTuJXsZVqxndtH7Hy0cQwzEEklykjhRZet19IFY0viwD3YXk3KRsrU4EeXay3j_xZQv-d9aHldZR8wfVA88flwHpO_Gy0]--></g></svg>